<svg xmlns="http://www.w3.org/2000/svg" width="500" height="500" viewBox="0 0 500 500" fill="#363636"><path d="M238.64 292.88c.8 4.61 4.84 7.95 11.35 7.95 6.52 0 10.55-3.34 11.35-7.95l8.99-59.42c2.27-13-6.61-25.87-20.35-25.87-13.73 0-22.62 12.87-20.35 25.87l9.01 59.42zm11.35 21.08c-11.6 0-21.02 9.42-21.02 21.03 0 11.61 9.41 21.02 21.02 21.02s21.02-9.41 21.02-21.02-9.41-21.03-21.02-21.03z" fill="#fff"/><path fill="#fff" d="M419.93 412.16H80.07a15 15 0 0 1-12.99-22.5L237 95.34a15 15 0 0 1 25.98 0l169.55 293.67c1.52 2.35 2.4 5.14 2.4 8.15 0 8.28-6.71 15-15 15zm-313.88-30h287.88L249.99 132.84 106.05 382.16z"/></svg>